# Blender 4.3.2
# www.blender.org
mtllib net.mtl
o Cube
v -3.623939 0.195730 2.483759
v -3.623939 0.195730 -2.464858
v -0.045673 0.332485 2.549914
v -0.045673 3.986356 2.549914
v -0.045673 0.332485 -2.587717
v -0.045673 3.986356 -2.587717
v -3.623939 0.195730 -1.969996
v -3.623939 0.195730 -1.475134
v -3.623939 0.195730 -0.980273
v -3.623939 0.195730 -0.485411
v -3.623939 0.195730 0.009451
v -3.623939 0.195730 0.504312
v -3.623939 0.195730 0.999174
v -3.623939 0.195730 1.494036
v -3.623939 0.195730 1.988897
v -0.403500 0.318809 -2.575431
v -0.761326 0.305134 -2.563145
v -1.119153 0.291459 -2.550859
v -1.476980 0.277783 -2.538573
v -1.834806 0.264108 -2.526287
v -2.192633 0.250432 -2.514001
v -2.550459 0.236757 -2.501715
v -2.908286 0.223081 -2.489429
v -3.266112 0.209406 -2.477143
v -0.045673 3.620969 -2.587717
v -0.045673 3.255582 -2.587717
v -0.045673 2.890195 -2.587717
v -0.045673 2.524807 -2.587717
v -0.045673 2.159420 -2.587717
v -0.045673 1.794033 -2.587717
v -0.045673 1.428646 -2.587717
v -0.045673 1.063259 -2.587717
v -0.045673 0.697872 -2.587717
v -0.045673 3.986356 -2.073954
v -0.045673 3.986356 -1.560191
v -0.045673 3.986356 -1.046427
v -0.045673 3.986356 -0.532664
v -0.045673 3.986356 -0.018901
v -0.045673 3.986356 0.494862
v -0.045673 3.986356 1.008625
v -0.045673 3.986356 1.522388
v -0.045673 3.986356 2.036151
v -0.045673 3.620969 2.549914
v -0.045673 3.255582 2.549914
v -0.045673 2.890195 2.549914
v -0.045673 2.524807 2.549914
v -0.045673 2.159420 2.549914
v -0.045673 1.794033 2.549914
v -0.045673 1.428646 2.549914
v -0.045673 1.063259 2.549914
v -0.045673 0.697872 2.549914
v -3.266112 0.209406 2.490374
v -2.908286 0.223081 2.496990
v -2.550459 0.236757 2.503605
v -2.192633 0.250432 2.510221
v -1.834806 0.264108 2.516836
v -1.476979 0.277783 2.523452
v -1.119153 0.291459 2.530067
v -0.761326 0.305134 2.536683
v -0.403500 0.318809 2.543298
v -3.266112 0.574793 2.490374
v -2.908286 0.953856 2.496990
v -2.550459 1.332918 2.503605
v -2.192633 1.711981 2.510221
v -1.834806 2.091043 2.516836
v -1.476979 2.470106 2.523452
v -1.119153 2.849169 2.530067
v -0.761326 3.228231 2.536683
v -0.403500 3.607294 2.543298
v -3.266112 0.574793 -2.477144
v -2.908286 0.953856 -2.489429
v -2.550459 1.332918 -2.501715
v -2.192633 1.711981 -2.514001
v -1.834806 2.091043 -2.526287
v -1.476979 2.470106 -2.538573
v -1.119153 2.849169 -2.550859
v -0.761326 3.228231 -2.563145
v -0.403500 3.607294 -2.575431
v -0.403500 3.607294 2.048437
v -0.761326 3.228231 1.546960
v -1.119153 2.849168 1.045482
v -1.476980 2.470106 0.544005
v -1.834806 2.091043 0.042528
v -2.192633 1.711980 -0.458949
v -2.550459 1.332918 -0.960426
v -2.908286 0.953855 -1.461903
v -3.266112 0.574793 -1.963380
v -0.403500 3.607294 -2.061668
v -0.761326 3.228231 -2.049382
v -0.403500 3.607294 -1.547905
v -1.119153 2.849169 -2.037096
v -0.761326 3.228231 -1.535619
v -0.403500 3.607294 -1.034142
v -1.476979 2.470106 -2.024810
v -1.119153 2.849169 -1.523333
v -0.761326 3.228231 -1.021856
v -0.403500 3.607294 -0.520378
v -1.834806 2.091043 -2.012524
v -1.476979 2.470106 -1.511047
v -1.119153 2.849169 -1.009570
v -0.761326 3.228231 -0.508093
v -0.403500 3.607294 -0.006615
v -2.192633 1.711981 -2.000238
v -1.834806 2.091043 -1.498761
v -1.476979 2.470106 -0.997284
v -1.119153 2.849169 -0.495807
v -0.761326 3.228231 0.005671
v -0.403500 3.607294 0.507148
v -2.550459 1.332918 -1.987952
v -2.192633 1.711981 -1.486475
v -1.834806 2.091043 -0.984998
v -1.476979 2.470106 -0.483521
v -1.119153 2.849169 0.017956
v -0.761326 3.228231 0.519434
v -0.403500 3.607294 1.020911
v -2.908286 0.953856 -1.975666
v -2.550459 1.332918 -1.474189
v -2.192633 1.711981 -0.972712
v -1.834806 2.091043 -0.471235
v -1.476979 2.470106 0.030242
v -1.119153 2.849169 0.531719
v -0.761326 3.228231 1.033197
v -0.403500 3.607294 1.534674
v -3.266112 0.574793 -1.468519
v -3.266113 0.574793 -0.973657
v -2.908286 0.953855 -0.967042
v -3.266112 0.574793 -0.478796
v -2.908286 0.953855 -0.472180
v -2.550459 1.332918 -0.465565
v -3.266113 0.574793 0.016066
v -2.908286 0.953855 0.022682
v -2.550459 1.332918 0.029297
v -2.192633 1.711980 0.035913
v -3.266113 0.574793 0.510928
v -2.908286 0.953856 0.517543
v -2.550459 1.332918 0.524159
v -2.192633 1.711981 0.530774
v -1.834806 2.091043 0.537390
v -3.266112 0.574793 1.005789
v -2.908286 0.953856 1.012405
v -2.550459 1.332918 1.019020
v -2.192633 1.711981 1.025636
v -1.834806 2.091043 1.032251
v -1.476979 2.470106 1.038867
v -3.266112 0.574793 1.500651
v -2.908286 0.953856 1.507267
v -2.550459 1.332918 1.513882
v -2.192633 1.711981 1.520498
v -1.834806 2.091043 1.527113
v -1.476979 2.470106 1.533729
v -1.119153 2.849168 1.540344
v -3.266112 0.574793 1.995513
v -2.908286 0.953856 2.002128
v -2.550459 1.332918 2.008744
v -2.192633 1.711981 2.015359
v -1.834806 2.091043 2.021975
v -1.476979 2.470106 2.028590
v -1.119153 2.849169 2.035206
v -0.761326 3.228231 2.041821
v -2.908286 0.588468 2.496990
v -2.550459 0.602144 2.503605
v -2.550459 0.967531 2.503605
v -2.192633 0.615819 2.510221
v -2.192633 0.981207 2.510221
v -2.192633 1.346594 2.510221
v -1.834806 0.629495 2.516836
v -1.834806 0.994882 2.516836
v -1.834806 1.360269 2.516836
v -1.834806 1.725656 2.516836
v -1.476979 0.643170 2.523452
v -1.476979 1.008557 2.523452
v -1.476979 1.373945 2.523452
v -1.476979 1.739332 2.523452
v -1.476979 2.104719 2.523452
v -1.119153 0.656846 2.530067
v -1.119153 1.022233 2.530067
v -1.119153 1.387620 2.530067
v -1.119153 1.753007 2.530067
v -1.119153 2.118394 2.530067
v -1.119153 2.483782 2.530067
v -0.761326 0.670521 2.536683
v -0.761326 1.035908 2.536683
v -0.761326 1.401295 2.536683
v -0.761326 1.766683 2.536683
v -0.761326 2.132070 2.536683
v -0.761326 2.497457 2.536683
v -0.761326 2.862844 2.536683
v -0.403500 0.684197 2.543298
v -0.403500 1.049584 2.543298
v -0.403500 1.414971 2.543298
v -0.403500 1.780358 2.543298
v -0.403500 2.145745 2.543298
v -0.403500 2.511132 2.543298
v -0.403500 2.876519 2.543298
v -0.403500 3.241907 2.543298
v -0.403500 0.684197 -2.575431
v -0.761326 0.670521 -2.563145
v -0.403500 1.049584 -2.575431
v -1.119153 0.656846 -2.550859
v -0.761326 1.035908 -2.563145
v -0.403500 1.414971 -2.575431
v -1.476980 0.643170 -2.538573
v -1.119153 1.022233 -2.550859
v -0.761326 1.401295 -2.563145
v -0.403500 1.780358 -2.575431
v -1.834806 0.629495 -2.526287
v -1.476979 1.008557 -2.538573
v -1.119153 1.387620 -2.550859
v -0.761326 1.766682 -2.563145
v -0.403500 2.145745 -2.575431
v -2.192633 0.615819 -2.514001
v -1.834806 0.994882 -2.526287
v -1.476979 1.373945 -2.538573
v -1.119153 1.753007 -2.550859
v -0.761326 2.132070 -2.563145
v -0.403500 2.511132 -2.575431
v -2.550459 0.602144 -2.501715
v -2.192633 0.981206 -2.514001
v -1.834806 1.360269 -2.526287
v -1.476979 1.739332 -2.538573
v -1.119153 2.118394 -2.550859
v -0.761326 2.497457 -2.563145
v -0.403500 2.876519 -2.575431
v -2.908286 0.588468 -2.489429
v -2.550459 0.967531 -2.501715
v -2.192633 1.346594 -2.514001
v -1.834806 1.725656 -2.526287
v -1.476979 2.104719 -2.538573
v -1.119153 2.483781 -2.550859
v -0.761326 2.862844 -2.563145
v -0.403500 3.241907 -2.575431
vn -0.0343 -0.0000 -0.9994
vn -0.0185 -0.0000 0.9998
vn -0.7272 0.6864 -0.0000
vt 0.375000 0.250000
vt 0.400000 0.275000
vt 0.375000 0.275000
vt 0.375000 0.750000
vt 0.400000 0.750000
vt 0.375000 0.775000
vt 0.375000 1.000000
vt 0.400000 0.975000
vt 0.375000 0.925000
vt 0.400000 0.300000
vt 0.600000 0.475000
vt 0.625000 0.525000
vt 0.625000 0.500000
vt 0.575000 0.450000
vt 0.600000 0.500000
vt 0.550000 0.425000
vt 0.575000 0.475000
vt 0.525000 0.400000
vt 0.550000 0.450000
vt 0.500000 0.375000
vt 0.525000 0.425000
vt 0.475000 0.350000
vt 0.500000 0.400000
vt 0.450000 0.325000
vt 0.475000 0.375000
vt 0.425000 0.300000
vt 0.450000 0.350000
vt 0.425000 0.325000
vt 0.625000 0.550000
vt 0.600000 0.525000
vt 0.625000 0.575000
vt 0.575000 0.500000
vt 0.600000 0.550000
vt 0.625000 0.600000
vt 0.550000 0.475000
vt 0.575000 0.525000
vt 0.600000 0.575000
vt 0.625000 0.625000
vt 0.525000 0.450000
vt 0.550000 0.500000
vt 0.575000 0.550000
vt 0.600000 0.600000
vt 0.625000 0.650000
vt 0.500000 0.425000
vt 0.525000 0.475000
vt 0.550000 0.525000
vt 0.575000 0.575000
vt 0.600000 0.625000
vt 0.625000 0.675000
vt 0.475000 0.400000
vt 0.500000 0.450000
vt 0.525000 0.500000
vt 0.550000 0.550000
vt 0.575000 0.600000
vt 0.600000 0.650000
vt 0.625000 0.700000
vt 0.450000 0.375000
vt 0.475000 0.425000
vt 0.500000 0.475000
vt 0.525000 0.525000
vt 0.550000 0.575000
vt 0.575000 0.625000
vt 0.600000 0.675000
vt 0.625000 0.725000
vt 0.425000 0.350000
vt 0.450000 0.400000
vt 0.475000 0.450000
vt 0.500000 0.500000
vt 0.525000 0.550000
vt 0.550000 0.600000
vt 0.575000 0.650000
vt 0.600000 0.700000
vt 0.625000 0.750000
vt 0.375000 0.325000
vt 0.375000 0.400000
vt 0.400000 0.375000
vt 0.375000 0.475000
vt 0.400000 0.450000
vt 0.375000 0.550000
vt 0.400000 0.525000
vt 0.375000 0.625000
vt 0.400000 0.600000
vt 0.375000 0.700000
vt 0.400000 0.675000
vt 0.375000 0.850000
vt 0.400000 0.825000
vt 0.400000 0.900000
vt 0.425000 0.425000
vt 0.425000 0.500000
vt 0.450000 0.475000
vt 0.425000 0.575000
vt 0.450000 0.550000
vt 0.475000 0.525000
vt 0.425000 0.650000
vt 0.450000 0.625000
vt 0.475000 0.600000
vt 0.500000 0.575000
vt 0.425000 0.725000
vt 0.450000 0.700000
vt 0.475000 0.675000
vt 0.500000 0.650000
vt 0.525000 0.625000
vt 0.425000 0.800000
vt 0.450000 0.775000
vt 0.475000 0.750000
vt 0.500000 0.725000
vt 0.525000 0.700000
vt 0.550000 0.675000
vt 0.425000 0.875000
vt 0.450000 0.850000
vt 0.475000 0.825000
vt 0.500000 0.800000
vt 0.525000 0.775000
vt 0.550000 0.750000
vt 0.575000 0.725000
vt 0.425000 0.950000
vt 0.450000 0.925000
vt 0.475000 0.900000
vt 0.500000 0.875000
vt 0.525000 0.850000
vt 0.550000 0.825000
vt 0.575000 0.800000
vt 0.600000 0.775000
vt 0.375000 0.975000
vt 0.375000 0.950000
vt 0.400000 0.950000
vt 0.375000 0.925000
vt 0.400000 0.925000
vt 0.375000 0.900000
vt 0.400000 0.900000
vt 0.375000 0.875000
vt 0.400000 0.875000
vt 0.375000 0.850000
vt 0.400000 0.850000
vt 0.375000 0.825000
vt 0.400000 0.825000
vt 0.375000 0.800000
vt 0.400000 0.800000
vt 0.400000 0.775000
vt 0.425000 0.925000
vt 0.425000 0.900000
vt 0.450000 0.900000
vt 0.425000 0.875000
vt 0.450000 0.875000
vt 0.475000 0.875000
vt 0.425000 0.850000
vt 0.450000 0.850000
vt 0.475000 0.850000
vt 0.500000 0.850000
vt 0.425000 0.825000
vt 0.450000 0.825000
vt 0.475000 0.825000
vt 0.500000 0.825000
vt 0.525000 0.825000
vt 0.425000 0.800000
vt 0.450000 0.800000
vt 0.475000 0.800000
vt 0.500000 0.800000
vt 0.525000 0.800000
vt 0.550000 0.800000
vt 0.425000 0.775000
vt 0.475000 0.775000
vt 0.500000 0.775000
vt 0.550000 0.775000
vt 0.575000 0.775000
vt 0.425000 0.750000
vt 0.450000 0.750000
vt 0.475000 0.750000
vt 0.500000 0.750000
vt 0.525000 0.750000
vt 0.550000 0.750000
vt 0.575000 0.750000
vt 0.600000 0.750000
vt 0.375000 0.475000
vt 0.400000 0.500000
vt 0.375000 0.500000
vt 0.375000 0.450000
vt 0.400000 0.475000
vt 0.375000 0.425000
vt 0.400000 0.450000
vt 0.375000 0.400000
vt 0.400000 0.425000
vt 0.375000 0.375000
vt 0.400000 0.400000
vt 0.375000 0.350000
vt 0.400000 0.375000
vt 0.375000 0.325000
vt 0.400000 0.350000
vt 0.375000 0.300000
vt 0.400000 0.325000
vt 0.400000 0.300000
vt 0.425000 0.500000
vt 0.425000 0.475000
vt 0.450000 0.500000
vt 0.425000 0.450000
vt 0.450000 0.475000
vt 0.475000 0.500000
vt 0.425000 0.425000
vt 0.450000 0.450000
vt 0.475000 0.475000
vt 0.500000 0.500000
vt 0.425000 0.400000
vt 0.450000 0.425000
vt 0.475000 0.450000
vt 0.500000 0.475000
vt 0.525000 0.500000
vt 0.425000 0.375000
vt 0.450000 0.400000
vt 0.475000 0.425000
vt 0.525000 0.475000
vt 0.550000 0.500000
vt 0.425000 0.350000
vt 0.450000 0.375000
vt 0.475000 0.400000
vt 0.525000 0.450000
vt 0.550000 0.475000
vt 0.575000 0.500000
vt 0.425000 0.325000
vt 0.450000 0.350000
vt 0.525000 0.425000
vt 0.575000 0.475000
vt 0.600000 0.500000
s 0
f 2/1/1 70/2/1 24/3/1
f 3/4/2 51/5/2 60/6/2
f 1/7/3 61/8/3 15/9/3
f 2/1/3 87/10/3 70/2/3
f 78/11/3 34/12/3 6/13/3
f 77/14/3 88/15/3 78/11/3
f 76/16/3 89/17/3 77/14/3
f 75/18/3 91/19/3 76/16/3
f 74/20/3 94/21/3 75/18/3
f 73/22/3 98/23/3 74/20/3
f 72/24/3 103/25/3 73/22/3
f 71/26/3 109/27/3 72/24/3
f 70/2/3 116/28/3 71/26/3
f 78/11/3 88/15/3 34/12/3
f 88/15/3 35/29/3 34/12/3
f 77/14/3 89/17/3 88/15/3
f 89/17/3 90/30/3 88/15/3
f 88/15/3 90/30/3 35/29/3
f 90/30/3 36/31/3 35/29/3
f 76/16/3 91/19/3 89/17/3
f 91/19/3 92/32/3 89/17/3
f 89/17/3 92/32/3 90/30/3
f 92/32/3 93/33/3 90/30/3
f 90/30/3 93/33/3 36/31/3
f 93/33/3 37/34/3 36/31/3
f 75/18/3 94/21/3 91/19/3
f 94/21/3 95/35/3 91/19/3
f 91/19/3 95/35/3 92/32/3
f 95/35/3 96/36/3 92/32/3
f 92/32/3 96/36/3 93/33/3
f 96/36/3 97/37/3 93/33/3
f 93/33/3 97/37/3 37/34/3
f 97/37/3 38/38/3 37/34/3
f 74/20/3 98/23/3 94/21/3
f 98/23/3 99/39/3 94/21/3
f 94/21/3 99/39/3 95/35/3
f 99/39/3 100/40/3 95/35/3
f 95/35/3 100/40/3 96/36/3
f 100/40/3 101/41/3 96/36/3
f 96/36/3 101/41/3 97/37/3
f 101/41/3 102/42/3 97/37/3
f 97/37/3 102/42/3 38/38/3
f 102/42/3 39/43/3 38/38/3
f 73/22/3 103/25/3 98/23/3
f 103/25/3 104/44/3 98/23/3
f 98/23/3 104/44/3 99/39/3
f 104/44/3 105/45/3 99/39/3
f 99/39/3 105/45/3 100/40/3
f 105/45/3 106/46/3 100/40/3
f 100/40/3 106/46/3 101/41/3
f 106/46/3 107/47/3 101/41/3
f 101/41/3 107/47/3 102/42/3
f 107/47/3 108/48/3 102/42/3
f 102/42/3 108/48/3 39/43/3
f 108/48/3 40/49/3 39/43/3
f 72/24/3 109/27/3 103/25/3
f 109/27/3 110/50/3 103/25/3
f 103/25/3 110/50/3 104/44/3
f 110/50/3 111/51/3 104/44/3
f 104/44/3 111/51/3 105/45/3
f 111/51/3 112/52/3 105/45/3
f 105/45/3 112/52/3 106/46/3
f 112/52/3 113/53/3 106/46/3
f 106/46/3 113/53/3 107/47/3
f 113/53/3 114/54/3 107/47/3
f 107/47/3 114/54/3 108/48/3
f 114/54/3 115/55/3 108/48/3
f 108/48/3 115/55/3 40/49/3
f 115/55/3 41/56/3 40/49/3
f 71/26/3 116/28/3 109/27/3
f 116/28/3 117/57/3 109/27/3
f 109/27/3 117/57/3 110/50/3
f 117/57/3 118/58/3 110/50/3
f 110/50/3 118/58/3 111/51/3
f 118/58/3 119/59/3 111/51/3
f 111/51/3 119/59/3 112/52/3
f 119/59/3 120/60/3 112/52/3
f 112/52/3 120/60/3 113/53/3
f 120/60/3 121/61/3 113/53/3
f 113/53/3 121/61/3 114/54/3
f 121/61/3 122/62/3 114/54/3
f 114/54/3 122/62/3 115/55/3
f 122/62/3 123/63/3 115/55/3
f 115/55/3 123/63/3 41/56/3
f 123/63/3 42/64/3 41/56/3
f 70/2/3 87/10/3 116/28/3
f 87/10/3 86/65/3 116/28/3
f 116/28/3 86/65/3 117/57/3
f 86/65/3 85/66/3 117/57/3
f 117/57/3 85/66/3 118/58/3
f 85/66/3 84/67/3 118/58/3
f 118/58/3 84/67/3 119/59/3
f 84/67/3 83/68/3 119/59/3
f 119/59/3 83/68/3 120/60/3
f 83/68/3 82/69/3 120/60/3
f 120/60/3 82/69/3 121/61/3
f 82/69/3 81/70/3 121/61/3
f 121/61/3 81/70/3 122/62/3
f 81/70/3 80/71/3 122/62/3
f 122/62/3 80/71/3 123/63/3
f 80/71/3 79/72/3 123/63/3
f 123/63/3 79/72/3 42/64/3
f 79/72/3 4/73/3 42/64/3
f 7/74/3 87/10/3 2/1/3
f 8/75/3 124/76/3 7/74/3
f 9/77/3 125/78/3 8/75/3
f 10/79/3 127/80/3 9/77/3
f 11/81/3 130/82/3 10/79/3
f 12/83/3 134/84/3 11/81/3
f 13/6/3 139/5/3 12/83/3
f 14/85/3 145/86/3 13/6/3
f 15/9/3 152/87/3 14/85/3
f 7/74/3 124/76/3 87/10/3
f 124/76/3 86/65/3 87/10/3
f 8/75/3 125/78/3 124/76/3
f 125/78/3 126/88/3 124/76/3
f 124/76/3 126/88/3 86/65/3
f 126/88/3 85/66/3 86/65/3
f 9/77/3 127/80/3 125/78/3
f 127/80/3 128/89/3 125/78/3
f 125/78/3 128/89/3 126/88/3
f 128/89/3 129/90/3 126/88/3
f 126/88/3 129/90/3 85/66/3
f 129/90/3 84/67/3 85/66/3
f 10/79/3 130/82/3 127/80/3
f 130/82/3 131/91/3 127/80/3
f 127/80/3 131/91/3 128/89/3
f 131/91/3 132/92/3 128/89/3
f 128/89/3 132/92/3 129/90/3
f 132/92/3 133/93/3 129/90/3
f 129/90/3 133/93/3 84/67/3
f 133/93/3 83/68/3 84/67/3
f 11/81/3 134/84/3 130/82/3
f 134/84/3 135/94/3 130/82/3
f 130/82/3 135/94/3 131/91/3
f 135/94/3 136/95/3 131/91/3
f 131/91/3 136/95/3 132/92/3
f 136/95/3 137/96/3 132/92/3
f 132/92/3 137/96/3 133/93/3
f 137/96/3 138/97/3 133/93/3
f 133/93/3 138/97/3 83/68/3
f 138/97/3 82/69/3 83/68/3
f 12/83/3 139/5/3 134/84/3
f 139/5/3 140/98/3 134/84/3
f 134/84/3 140/98/3 135/94/3
f 140/98/3 141/99/3 135/94/3
f 135/94/3 141/99/3 136/95/3
f 141/99/3 142/100/3 136/95/3
f 136/95/3 142/100/3 137/96/3
f 142/100/3 143/101/3 137/96/3
f 137/96/3 143/101/3 138/97/3
f 143/101/3 144/102/3 138/97/3
f 138/97/3 144/102/3 82/69/3
f 144/102/3 81/70/3 82/69/3
f 13/6/3 145/86/3 139/5/3
f 145/86/3 146/103/3 139/5/3
f 139/5/3 146/103/3 140/98/3
f 146/103/3 147/104/3 140/98/3
f 140/98/3 147/104/3 141/99/3
f 147/104/3 148/105/3 141/99/3
f 141/99/3 148/105/3 142/100/3
f 148/105/3 149/106/3 142/100/3
f 142/100/3 149/106/3 143/101/3
f 149/106/3 150/107/3 143/101/3
f 143/101/3 150/107/3 144/102/3
f 150/107/3 151/108/3 144/102/3
f 144/102/3 151/108/3 81/70/3
f 151/108/3 80/71/3 81/70/3
f 14/85/3 152/87/3 145/86/3
f 152/87/3 153/109/3 145/86/3
f 145/86/3 153/109/3 146/103/3
f 153/109/3 154/110/3 146/103/3
f 146/103/3 154/110/3 147/104/3
f 154/110/3 155/111/3 147/104/3
f 147/104/3 155/111/3 148/105/3
f 155/111/3 156/112/3 148/105/3
f 148/105/3 156/112/3 149/106/3
f 156/112/3 157/113/3 149/106/3
f 149/106/3 157/113/3 150/107/3
f 157/113/3 158/114/3 150/107/3
f 150/107/3 158/114/3 151/108/3
f 158/114/3 159/115/3 151/108/3
f 151/108/3 159/115/3 80/71/3
f 159/115/3 79/72/3 80/71/3
f 15/9/3 61/8/3 152/87/3
f 61/8/3 62/116/3 152/87/3
f 152/87/3 62/116/3 153/109/3
f 62/116/3 63/117/3 153/109/3
f 153/109/3 63/117/3 154/110/3
f 63/117/3 64/118/3 154/110/3
f 154/110/3 64/118/3 155/111/3
f 64/118/3 65/119/3 155/111/3
f 155/111/3 65/119/3 156/112/3
f 65/119/3 66/120/3 156/112/3
f 156/112/3 66/120/3 157/113/3
f 66/120/3 67/121/3 157/113/3
f 157/113/3 67/121/3 158/114/3
f 67/121/3 68/122/3 158/114/3
f 158/114/3 68/122/3 159/115/3
f 68/122/3 69/123/3 159/115/3
f 159/115/3 69/123/3 79/72/3
f 69/123/3 4/73/3 79/72/3
f 52/124/2 61/8/2 1/7/2
f 53/125/2 160/126/2 52/124/2
f 54/127/2 161/128/2 53/125/2
f 55/129/2 163/130/2 54/127/2
f 56/131/2 166/132/2 55/129/2
f 57/133/2 170/134/2 56/131/2
f 58/135/2 175/136/2 57/133/2
f 59/137/2 181/138/2 58/135/2
f 60/6/2 188/139/2 59/137/2
f 52/124/2 160/126/2 61/8/2
f 160/126/2 62/116/2 61/8/2
f 53/125/2 161/128/2 160/126/2
f 161/128/2 162/140/2 160/126/2
f 160/126/2 162/140/2 62/116/2
f 162/140/2 63/117/2 62/116/2
f 54/127/2 163/130/2 161/128/2
f 163/130/2 164/141/2 161/128/2
f 161/128/2 164/141/2 162/140/2
f 164/141/2 165/142/2 162/140/2
f 162/140/2 165/142/2 63/117/2
f 165/142/2 64/118/2 63/117/2
f 55/129/2 166/132/2 163/130/2
f 166/132/2 167/143/2 163/130/2
f 163/130/2 167/143/2 164/141/2
f 167/143/2 168/144/2 164/141/2
f 164/141/2 168/144/2 165/142/2
f 168/144/2 169/145/2 165/142/2
f 165/142/2 169/145/2 64/118/2
f 169/145/2 65/119/2 64/118/2
f 56/131/2 170/134/2 166/132/2
f 170/134/2 171/146/2 166/132/2
f 166/132/2 171/146/2 167/143/2
f 171/146/2 172/147/2 167/143/2
f 167/143/2 172/147/2 168/144/2
f 172/147/2 173/148/2 168/144/2
f 168/144/2 173/148/2 169/145/2
f 173/148/2 174/149/2 169/145/2
f 169/145/2 174/149/2 65/119/2
f 174/149/2 66/120/2 65/119/2
f 57/133/2 175/136/2 170/134/2
f 175/136/2 176/150/2 170/134/2
f 170/134/2 176/150/2 171/146/2
f 176/150/2 177/151/2 171/146/2
f 171/146/2 177/151/2 172/147/2
f 177/151/2 178/152/2 172/147/2
f 172/147/2 178/152/2 173/148/2
f 178/152/2 179/153/2 173/148/2
f 173/148/2 179/153/2 174/149/2
f 179/153/2 180/154/2 174/149/2
f 174/149/2 180/154/2 66/120/2
f 180/154/2 67/121/2 66/120/2
f 58/135/2 181/138/2 175/136/2
f 181/138/2 182/155/2 175/136/2
f 175/136/2 182/155/2 176/150/2
f 182/155/2 183/156/2 176/150/2
f 176/150/2 183/156/2 177/151/2
f 183/156/2 184/157/2 177/151/2
f 177/151/2 184/157/2 178/152/2
f 184/157/2 185/158/2 178/152/2
f 178/152/2 185/158/2 179/153/2
f 185/158/2 186/159/2 179/153/2
f 179/153/2 186/159/2 180/154/2
f 186/159/2 187/160/2 180/154/2
f 180/154/2 187/160/2 67/121/2
f 187/160/2 68/122/2 67/121/2
f 59/137/2 188/139/2 181/138/2
f 188/139/2 189/161/2 181/138/2
f 181/138/2 189/161/2 182/155/2
f 189/161/2 190/104/2 182/155/2
f 182/155/2 190/104/2 183/156/2
f 190/104/2 191/162/2 183/156/2
f 183/156/2 191/162/2 184/157/2
f 191/162/2 192/163/2 184/157/2
f 184/157/2 192/163/2 185/158/2
f 192/163/2 193/113/2 185/158/2
f 185/158/2 193/113/2 186/159/2
f 193/113/2 194/164/2 186/159/2
f 186/159/2 194/164/2 187/160/2
f 194/164/2 195/165/2 187/160/2
f 187/160/2 195/165/2 68/122/2
f 195/165/2 69/123/2 68/122/2
f 60/6/2 51/5/2 188/139/2
f 51/5/2 50/166/2 188/139/2
f 188/139/2 50/166/2 189/161/2
f 50/166/2 49/167/2 189/161/2
f 189/161/2 49/167/2 190/104/2
f 49/167/2 48/168/2 190/104/2
f 190/104/2 48/168/2 191/162/2
f 48/168/2 47/169/2 191/162/2
f 191/162/2 47/169/2 192/163/2
f 47/169/2 46/170/2 192/163/2
f 192/163/2 46/170/2 193/113/2
f 46/170/2 45/171/2 193/113/2
f 193/113/2 45/171/2 194/164/2
f 45/171/2 44/172/2 194/164/2
f 194/164/2 44/172/2 195/165/2
f 44/172/2 43/173/2 195/165/2
f 195/165/2 43/173/2 69/123/2
f 43/173/2 4/73/2 69/123/2
f 16/174/1 33/175/1 5/176/1
f 17/177/1 196/178/1 16/174/1
f 18/179/1 197/180/1 17/177/1
f 19/181/1 199/182/1 18/179/1
f 20/183/1 202/184/1 19/181/1
f 21/185/1 206/186/1 20/183/1
f 22/187/1 211/188/1 21/185/1
f 23/189/1 217/190/1 22/187/1
f 24/3/1 224/191/1 23/189/1
f 16/174/1 196/178/1 33/175/1
f 196/178/1 32/192/1 33/175/1
f 17/177/1 197/180/1 196/178/1
f 197/180/1 198/193/1 196/178/1
f 196/178/1 198/193/1 32/192/1
f 198/193/1 31/194/1 32/192/1
f 18/179/1 199/182/1 197/180/1
f 199/182/1 200/195/1 197/180/1
f 197/180/1 200/195/1 198/193/1
f 200/195/1 201/196/1 198/193/1
f 198/193/1 201/196/1 31/194/1
f 201/196/1 30/197/1 31/194/1
f 19/181/1 202/184/1 199/182/1
f 202/184/1 203/198/1 199/182/1
f 199/182/1 203/198/1 200/195/1
f 203/198/1 204/199/1 200/195/1
f 200/195/1 204/199/1 201/196/1
f 204/199/1 205/200/1 201/196/1
f 201/196/1 205/200/1 30/197/1
f 205/200/1 29/201/1 30/197/1
f 20/183/1 206/186/1 202/184/1
f 206/186/1 207/202/1 202/184/1
f 202/184/1 207/202/1 203/198/1
f 207/202/1 208/203/1 203/198/1
f 203/198/1 208/203/1 204/199/1
f 208/203/1 209/204/1 204/199/1
f 204/199/1 209/204/1 205/200/1
f 209/204/1 210/205/1 205/200/1
f 205/200/1 210/205/1 29/201/1
f 210/205/1 28/206/1 29/201/1
f 21/185/1 211/188/1 206/186/1
f 211/188/1 212/207/1 206/186/1
f 206/186/1 212/207/1 207/202/1
f 212/207/1 213/208/1 207/202/1
f 207/202/1 213/208/1 208/203/1
f 213/208/1 214/209/1 208/203/1
f 208/203/1 214/209/1 209/204/1
f 214/209/1 215/51/1 209/204/1
f 209/204/1 215/51/1 210/205/1
f 215/51/1 216/210/1 210/205/1
f 210/205/1 216/210/1 28/206/1
f 216/210/1 27/211/1 28/206/1
f 22/187/1 217/190/1 211/188/1
f 217/190/1 218/212/1 211/188/1
f 211/188/1 218/212/1 212/207/1
f 218/212/1 219/213/1 212/207/1
f 212/207/1 219/213/1 213/208/1
f 219/213/1 220/214/1 213/208/1
f 213/208/1 220/214/1 214/209/1
f 220/214/1 221/44/1 214/209/1
f 214/209/1 221/44/1 215/51/1
f 221/44/1 222/215/1 215/51/1
f 215/51/1 222/215/1 216/210/1
f 222/215/1 223/216/1 216/210/1
f 216/210/1 223/216/1 27/211/1
f 223/216/1 26/217/1 27/211/1
f 23/189/1 224/191/1 217/190/1
f 224/191/1 225/218/1 217/190/1
f 217/190/1 225/218/1 218/212/1
f 225/218/1 226/219/1 218/212/1
f 218/212/1 226/219/1 219/213/1
f 226/219/1 227/25/1 219/213/1
f 219/213/1 227/25/1 220/214/1
f 227/25/1 228/23/1 220/214/1
f 220/214/1 228/23/1 221/44/1
f 228/23/1 229/220/1 221/44/1
f 221/44/1 229/220/1 222/215/1
f 229/220/1 230/19/1 222/215/1
f 222/215/1 230/19/1 223/216/1
f 230/19/1 231/221/1 223/216/1
f 223/216/1 231/221/1 26/217/1
f 231/221/1 25/222/1 26/217/1
f 24/3/1 70/2/1 224/191/1
f 70/2/1 71/26/1 224/191/1
f 224/191/1 71/26/1 225/218/1
f 71/26/1 72/24/1 225/218/1
f 225/218/1 72/24/1 226/219/1
f 72/24/1 73/22/1 226/219/1
f 226/219/1 73/22/1 227/25/1
f 73/22/1 74/20/1 227/25/1
f 227/25/1 74/20/1 228/23/1
f 74/20/1 75/18/1 228/23/1
f 228/23/1 75/18/1 229/220/1
f 75/18/1 76/16/1 229/220/1
f 229/220/1 76/16/1 230/19/1
f 76/16/1 77/14/1 230/19/1
f 230/19/1 77/14/1 231/221/1
f 77/14/1 78/11/1 231/221/1
f 231/221/1 78/11/1 25/222/1
f 78/11/1 6/13/1 25/222/1
