# Blender 4.3.2
# www.blender.org
mtllib net_square.mtl
o Cube
v -3.623939 0.183488 1.927259
v -3.623939 0.183488 -1.876252
v -0.004489 0.183488 1.993414
v -0.004489 3.986356 1.993414
v -0.004489 0.183488 -1.999111
v -0.004489 3.986356 -1.999111
v -3.623939 0.183488 -1.425637
v -3.623939 0.183488 -0.915310
v -3.623939 0.183488 -0.406702
v -3.623939 0.183488 0.031947
v -3.623939 0.183488 0.465441
v -3.623939 0.183488 0.965458
v -3.623939 0.183488 1.463756
v -0.362316 0.183488 -1.986825
v -0.720142 0.183488 -1.974539
v -1.077969 0.183488 -1.962253
v -1.435796 0.183488 -1.949967
v -1.793622 0.183488 -1.937681
v -2.151449 0.183488 -1.925395
v -2.509275 0.183488 -1.913109
v -2.867102 0.183488 -1.900823
v -3.224928 0.183488 -1.888537
v -0.004489 3.620969 -1.999111
v -0.004489 3.255582 -1.999111
v -0.004489 2.890195 -1.999111
v -0.004489 2.524807 -1.999111
v -0.004489 2.159420 -1.999111
v -0.004489 1.794033 -1.999111
v -0.004489 1.428646 -1.999111
v -0.004489 1.063259 -1.999111
v -0.004489 0.697872 -1.999111
v -0.004489 3.986356 -1.425637
v -0.004489 3.986356 -0.915310
v -0.004489 3.986356 -0.406702
v -0.004489 3.986356 0.031947
v -0.004489 3.986356 0.465441
v -0.004489 3.986356 0.965458
v -0.004489 3.986356 1.463756
v -0.004489 3.620969 1.993414
v -0.004489 3.255582 1.993414
v -0.004489 2.890195 1.993414
v -0.004489 2.524807 1.993414
v -0.004489 2.159420 1.993414
v -0.004489 1.794033 1.993414
v -0.004489 1.428646 1.993414
v -0.004489 1.063259 1.993414
v -0.004489 0.697872 1.993414
v -3.224928 0.183488 1.933874
v -2.867102 0.183488 1.940490
v -2.509275 0.183488 1.947105
v -2.151449 0.183488 1.953721
v -1.793622 0.183488 1.960336
v -1.435795 0.183488 1.966952
v -1.077969 0.183488 1.973567
v -0.720142 0.183488 1.980183
v -0.362316 0.183488 1.986798
v -3.224928 0.574793 1.933874
v -2.867102 0.953856 1.940490
v -2.509275 1.332918 1.947105
v -2.151449 1.711981 1.953721
v -1.793622 2.091043 1.960336
v -1.435795 2.470106 1.966952
v -1.077969 2.849169 1.973567
v -0.720142 3.228231 1.980183
v -0.362316 3.607294 1.986798
v -3.224928 0.574793 -1.888538
v -2.867102 0.953856 -1.900824
v -2.509275 1.332918 -1.913110
v -2.151449 1.711981 -1.925395
v -1.793622 2.091043 -1.937681
v -1.435795 2.470106 -1.949967
v -1.077969 2.849169 -1.962253
v -0.720142 3.228231 -1.974539
v -0.362316 3.607294 -1.986825
v -0.362316 3.607294 1.463756
v -0.720142 3.228231 0.965458
v -1.077969 2.849168 0.465441
v -1.435796 2.470106 0.031947
v -2.151449 1.711981 0.031947
v -2.509275 1.332918 -0.406702
v -2.867102 0.953855 -0.915310
v -3.224928 0.574793 -1.425637
v -0.362316 3.607294 -1.425637
v -0.720142 3.228231 -1.425637
v -0.362316 3.607294 -0.915310
v -1.077969 2.849169 -1.425637
v -0.720142 3.228231 -0.915310
v -0.362316 3.607294 -0.406702
v -1.435795 2.470106 -1.425637
v -1.077969 2.849169 -0.915310
v -0.720142 3.228231 -0.406702
v -0.362316 3.607294 0.031947
v -1.793622 2.091043 -1.425637
v -1.435795 2.470106 -0.915310
v -1.077969 2.849169 -0.406702
v -0.720142 3.228231 0.031947
v -2.151449 1.711981 -1.425637
v -1.793622 2.091043 -0.915310
v -1.435795 2.470106 -0.406702
v -1.077969 2.849169 0.031947
v -2.509275 1.332918 -1.425637
v -2.151449 1.711981 -0.915310
v -1.793622 2.091043 -0.406702
v -0.362316 3.607294 0.465441
v -2.867102 0.953856 -1.425637
v -2.509275 1.332918 -0.915310
v -2.151449 1.711981 -0.406702
v -1.793622 2.091043 0.031947
v -0.720142 3.228231 0.465441
v -0.362316 3.607294 0.965458
v -3.224928 0.574793 -0.915310
v -3.224928 0.574793 -0.406702
v -2.867102 0.953855 -0.406702
v -3.224928 0.574793 0.031947
v -2.867102 0.953856 0.031947
v -2.509275 1.332918 0.031947
v -3.224928 0.574793 0.465441
v -2.867102 0.953856 0.465441
v -2.509275 1.332918 0.465441
v -2.151449 1.711981 0.465441
v -1.793622 2.091043 0.465441
v -1.435795 2.470106 0.465441
v -3.224928 0.574793 0.965458
v -2.867102 0.953856 0.965458
v -2.509275 1.332918 0.965458
v -2.151449 1.711981 0.965458
v -1.793622 2.091043 0.965458
v -1.435795 2.470106 0.965458
v -1.077969 2.849168 0.965458
v -3.224928 0.574793 1.463756
v -2.867102 0.953856 1.463756
v -2.509275 1.332918 1.463756
v -2.151449 1.711981 1.463756
v -1.793622 2.091043 1.463756
v -1.435795 2.470106 1.463756
v -1.077969 2.849169 1.463756
v -0.720142 3.228231 1.463756
v -2.867102 0.588468 1.940490
v -2.509275 0.602144 1.947105
v -2.509275 0.967531 1.947105
v -2.151449 0.615819 1.953721
v -2.151449 0.981207 1.953721
v -2.151449 1.346594 1.953721
v -1.793622 0.629495 1.960336
v -1.793622 0.994882 1.960336
v -1.793622 1.360269 1.960336
v -1.793622 1.725656 1.960336
v -1.435795 0.643170 1.966952
v -1.435795 1.008557 1.966952
v -1.435795 1.373945 1.966952
v -1.435795 1.739332 1.966952
v -1.435795 2.104719 1.966952
v -1.077969 0.656846 1.973567
v -1.077969 1.022233 1.973567
v -1.077969 1.387620 1.973567
v -1.077969 1.753007 1.973567
v -1.077969 2.118394 1.973567
v -1.077969 2.483782 1.973567
v -0.720142 0.670521 1.980183
v -0.720142 1.035908 1.980183
v -0.720142 1.401295 1.980183
v -0.720142 1.766683 1.980183
v -0.720142 2.132070 1.980183
v -0.720142 2.497457 1.980183
v -0.720142 2.862844 1.980183
v -0.362316 0.684197 1.986798
v -0.362316 1.049584 1.986798
v -0.362316 1.414971 1.986798
v -0.362316 1.780358 1.986798
v -0.362316 2.145745 1.986798
v -0.362316 2.511132 1.986798
v -0.362316 2.876519 1.986798
v -0.362316 3.241907 1.986798
v -0.362316 0.684197 -1.986825
v -0.720142 0.670521 -1.974539
v -0.362316 1.049584 -1.986825
v -1.077969 0.656846 -1.962253
v -0.720142 1.035908 -1.974539
v -0.362316 1.414971 -1.986825
v -1.435796 0.643170 -1.949967
v -1.077969 1.022233 -1.962253
v -0.720142 1.401295 -1.974539
v -0.362316 1.780358 -1.986825
v -1.793622 0.629495 -1.937681
v -1.435795 1.008557 -1.949967
v -1.077969 1.387620 -1.962253
v -0.720142 1.766682 -1.974539
v -0.362316 2.145745 -1.986825
v -2.151449 0.615819 -1.925395
v -1.793622 0.994882 -1.937681
v -1.435795 1.373945 -1.949967
v -1.077969 1.753007 -1.962253
v -0.720142 2.132070 -1.974539
v -0.362316 2.511132 -1.986825
v -2.509275 0.602144 -1.913109
v -2.151449 0.981206 -1.925395
v -1.793622 1.360269 -1.937681
v -1.435795 1.739332 -1.949967
v -1.077969 2.118394 -1.962253
v -0.720142 2.497457 -1.974539
v -0.362316 2.876519 -1.986825
v -2.867102 0.588468 -1.900823
v -2.509275 0.967531 -1.913109
v -2.151449 1.346594 -1.925395
v -1.793622 1.725656 -1.937681
v -1.435795 2.104719 -1.949967
v -1.077969 2.483781 -1.962253
v -0.720142 2.862844 -1.974539
v -0.362316 3.241907 -1.986825
vn -0.0308 -0.0000 -0.9995
vn -0.0185 -0.0000 0.9998
vn -0.7002 0.7140 -0.0000
vn -0.7272 0.6864 -0.0000
vn -0.0166 -0.0000 0.9999
vn -0.0343 -0.0000 -0.9994
vt 0.375000 0.250000
vt 0.400000 0.275000
vt 0.375000 0.275000
vt 0.375000 0.750000
vt 0.400000 0.750000
vt 0.375000 0.775000
vt 0.375000 1.000000
vt 0.400000 0.975000
vt 0.375000 0.925000
vt 0.400000 0.300000
vt 0.600000 0.475000
vt 0.625000 0.525000
vt 0.625000 0.500000
vt 0.575000 0.450000
vt 0.600000 0.500000
vt 0.550000 0.425000
vt 0.575000 0.475000
vt 0.525000 0.400000
vt 0.550000 0.450000
vt 0.500000 0.375000
vt 0.525000 0.425000
vt 0.475000 0.350000
vt 0.500000 0.400000
vt 0.450000 0.325000
vt 0.475000 0.375000
vt 0.425000 0.300000
vt 0.450000 0.350000
vt 0.425000 0.325000
vt 0.625000 0.550000
vt 0.600000 0.525000
vt 0.625000 0.575000
vt 0.575000 0.500000
vt 0.600000 0.550000
vt 0.625000 0.600000
vt 0.550000 0.475000
vt 0.575000 0.525000
vt 0.600000 0.575000
vt 0.525000 0.450000
vt 0.550000 0.500000
vt 0.575000 0.550000
vt 0.500000 0.425000
vt 0.525000 0.475000
vt 0.550000 0.525000
vt 0.600000 0.625000
vt 0.625000 0.675000
vt 0.625000 0.650000
vt 0.475000 0.400000
vt 0.500000 0.450000
vt 0.525000 0.500000
vt 0.575000 0.600000
vt 0.600000 0.650000
vt 0.625000 0.700000
vt 0.450000 0.375000
vt 0.475000 0.425000
vt 0.500000 0.475000
vt 0.550000 0.575000
vt 0.575000 0.625000
vt 0.600000 0.675000
vt 0.625000 0.725000
vt 0.425000 0.350000
vt 0.450000 0.400000
vt 0.475000 0.450000
vt 0.525000 0.550000
vt 0.550000 0.600000
vt 0.575000 0.650000
vt 0.600000 0.700000
vt 0.625000 0.750000
vt 0.375000 0.325000
vt 0.375000 0.400000
vt 0.400000 0.375000
vt 0.375000 0.475000
vt 0.400000 0.450000
vt 0.375000 0.550000
vt 0.400000 0.525000
vt 0.375000 0.700000
vt 0.375000 0.850000
vt 0.400000 0.825000
vt 0.400000 0.900000
vt 0.425000 0.425000
vt 0.425000 0.500000
vt 0.450000 0.475000
vt 0.400000 0.675000
vt 0.425000 0.725000
vt 0.425000 0.650000
vt 0.450000 0.700000
vt 0.450000 0.625000
vt 0.475000 0.675000
vt 0.475000 0.600000
vt 0.500000 0.650000
vt 0.500000 0.575000
vt 0.525000 0.625000
vt 0.425000 0.800000
vt 0.450000 0.775000
vt 0.475000 0.750000
vt 0.500000 0.725000
vt 0.525000 0.700000
vt 0.550000 0.675000
vt 0.425000 0.875000
vt 0.450000 0.850000
vt 0.475000 0.825000
vt 0.500000 0.800000
vt 0.525000 0.775000
vt 0.550000 0.750000
vt 0.575000 0.725000
vt 0.425000 0.950000
vt 0.450000 0.925000
vt 0.475000 0.900000
vt 0.500000 0.875000
vt 0.525000 0.850000
vt 0.550000 0.825000
vt 0.575000 0.800000
vt 0.600000 0.775000
vt 0.375000 0.975000
vt 0.375000 0.950000
vt 0.400000 0.950000
vt 0.375000 0.925000
vt 0.400000 0.925000
vt 0.375000 0.900000
vt 0.400000 0.900000
vt 0.375000 0.875000
vt 0.400000 0.875000
vt 0.375000 0.850000
vt 0.400000 0.850000
vt 0.375000 0.825000
vt 0.400000 0.825000
vt 0.375000 0.800000
vt 0.400000 0.800000
vt 0.400000 0.775000
vt 0.425000 0.925000
vt 0.425000 0.900000
vt 0.450000 0.900000
vt 0.425000 0.875000
vt 0.450000 0.875000
vt 0.475000 0.875000
vt 0.425000 0.850000
vt 0.450000 0.850000
vt 0.475000 0.850000
vt 0.500000 0.850000
vt 0.425000 0.825000
vt 0.450000 0.825000
vt 0.475000 0.825000
vt 0.500000 0.825000
vt 0.525000 0.825000
vt 0.425000 0.800000
vt 0.450000 0.800000
vt 0.475000 0.800000
vt 0.500000 0.800000
vt 0.525000 0.800000
vt 0.550000 0.800000
vt 0.425000 0.775000
vt 0.475000 0.775000
vt 0.500000 0.775000
vt 0.550000 0.775000
vt 0.575000 0.775000
vt 0.425000 0.750000
vt 0.450000 0.750000
vt 0.475000 0.750000
vt 0.500000 0.750000
vt 0.525000 0.750000
vt 0.550000 0.750000
vt 0.575000 0.750000
vt 0.600000 0.750000
vt 0.375000 0.475000
vt 0.400000 0.500000
vt 0.375000 0.500000
vt 0.375000 0.450000
vt 0.400000 0.475000
vt 0.375000 0.425000
vt 0.400000 0.450000
vt 0.375000 0.400000
vt 0.400000 0.425000
vt 0.375000 0.375000
vt 0.400000 0.400000
vt 0.375000 0.350000
vt 0.400000 0.375000
vt 0.375000 0.325000
vt 0.400000 0.350000
vt 0.375000 0.300000
vt 0.400000 0.325000
vt 0.400000 0.300000
vt 0.425000 0.500000
vt 0.425000 0.475000
vt 0.450000 0.500000
vt 0.425000 0.450000
vt 0.450000 0.475000
vt 0.475000 0.500000
vt 0.425000 0.425000
vt 0.450000 0.450000
vt 0.475000 0.475000
vt 0.500000 0.500000
vt 0.425000 0.400000
vt 0.450000 0.425000
vt 0.475000 0.450000
vt 0.500000 0.475000
vt 0.525000 0.500000
vt 0.425000 0.375000
vt 0.450000 0.400000
vt 0.475000 0.425000
vt 0.525000 0.475000
vt 0.550000 0.500000
vt 0.425000 0.350000
vt 0.450000 0.375000
vt 0.475000 0.400000
vt 0.525000 0.450000
vt 0.550000 0.475000
vt 0.575000 0.500000
vt 0.425000 0.325000
vt 0.450000 0.350000
vt 0.525000 0.425000
vt 0.575000 0.475000
vt 0.600000 0.500000
s 0
f 2/1/1 66/2/1 22/3/1
f 3/4/2 47/5/2 56/6/2
f 1/7/3 57/8/3 13/9/3
f 2/1/3 82/10/3 66/2/3
f 74/11/4 32/12/4 6/13/4
f 73/14/4 83/15/4 74/11/4
f 72/16/4 84/17/4 73/14/4
f 71/18/4 86/19/4 72/16/4
f 70/20/4 89/21/4 71/18/4
f 69/22/4 93/23/4 70/20/4
f 68/24/4 97/25/4 69/22/4
f 67/26/4 101/27/4 68/24/4
f 66/2/4 105/28/4 67/26/4
f 74/11/4 83/15/4 32/12/4
f 83/15/4 33/29/4 32/12/4
f 73/14/4 84/17/4 83/15/4
f 84/17/4 85/30/4 83/15/4
f 83/15/4 85/30/4 33/29/4
f 85/30/4 34/31/4 33/29/4
f 72/16/4 86/19/4 84/17/4
f 86/19/4 87/32/4 84/17/4
f 84/17/4 87/32/4 85/30/4
f 87/32/4 88/33/4 85/30/4
f 85/30/4 88/33/4 34/31/4
f 88/33/4 35/34/4 34/31/4
f 71/18/4 89/21/4 86/19/4
f 89/21/4 90/35/4 86/19/4
f 86/19/4 90/35/4 87/32/4
f 90/35/4 91/36/4 87/32/4
f 87/32/4 91/36/4 88/33/4
f 91/36/4 92/37/4 88/33/4
f 88/33/4 92/37/4 35/34/4
f 70/20/4 93/23/4 89/21/4
f 93/23/4 94/38/4 89/21/4
f 89/21/4 94/38/4 90/35/4
f 94/38/4 95/39/4 90/35/4
f 90/35/4 95/39/4 91/36/4
f 95/39/4 96/40/4 91/36/4
f 91/36/4 96/40/4 92/37/4
f 69/22/4 97/25/4 93/23/4
f 97/25/4 98/41/4 93/23/4
f 93/23/4 98/41/4 94/38/4
f 98/41/4 99/42/4 94/38/4
f 94/38/4 99/42/4 95/39/4
f 99/42/4 100/43/4 95/39/4
f 95/39/4 100/43/4 96/40/4
f 92/44/4 36/45/4 35/46/4
f 68/24/4 101/27/4 97/25/4
f 101/27/4 102/47/4 97/25/4
f 97/25/4 102/47/4 98/41/4
f 102/47/4 103/48/4 98/41/4
f 98/41/4 103/48/4 99/42/4
f 103/48/4 78/49/4 99/42/4
f 99/42/4 78/49/4 100/43/4
f 96/50/4 104/51/4 92/44/4
f 92/44/4 104/51/4 36/45/4
f 104/51/4 37/52/4 36/45/4
f 67/26/4 105/28/4 101/27/4
f 105/28/4 106/53/4 101/27/4
f 101/27/4 106/53/4 102/47/4
f 106/53/4 107/54/4 102/47/4
f 102/47/4 107/54/4 103/48/4
f 107/54/4 108/55/4 103/48/4
f 103/48/4 108/55/4 78/49/4
f 100/56/4 109/57/4 96/50/4
f 96/50/4 109/57/4 104/51/4
f 109/57/4 110/58/4 104/51/4
f 104/51/4 110/58/4 37/52/4
f 110/58/4 38/59/4 37/52/4
f 66/2/4 82/10/4 105/28/4
f 82/10/4 81/60/4 105/28/4
f 105/28/4 81/60/4 106/53/4
f 81/60/4 80/61/4 106/53/4
f 106/53/4 80/61/4 107/54/4
f 80/61/4 79/62/4 107/54/4
f 107/54/4 79/62/4 108/55/4
f 78/63/4 77/64/4 100/56/4
f 100/56/4 77/64/4 109/57/4
f 77/64/4 76/65/4 109/57/4
f 109/57/4 76/65/4 110/58/4
f 76/65/4 75/66/4 110/58/4
f 110/58/4 75/66/4 38/59/4
f 75/66/4 4/67/4 38/59/4
f 7/68/3 82/10/3 2/1/3
f 8/69/3 111/70/3 7/68/3
f 9/71/3 112/72/3 8/69/3
f 10/73/3 114/74/3 9/71/3
f 11/6/3 117/5/3 10/75/3
f 12/76/3 123/77/3 11/6/3
f 13/9/3 130/78/3 12/76/3
f 7/68/3 111/70/3 82/10/3
f 111/70/4 81/60/4 82/10/4
f 8/69/3 112/72/3 111/70/3
f 112/72/4 113/79/4 111/70/4
f 111/70/4 113/79/4 81/60/4
f 113/79/4 80/61/4 81/60/4
f 9/71/3 114/74/3 112/72/3
f 114/74/4 115/80/4 112/72/4
f 112/72/4 115/80/4 113/79/4
f 115/80/4 116/81/4 113/79/4
f 113/79/4 116/81/4 80/61/4
f 116/81/4 79/62/4 80/61/4
f 10/75/3 117/5/3 114/82/3
f 117/5/4 118/83/4 114/82/4
f 114/82/4 118/83/4 115/84/4
f 118/83/4 119/85/4 115/84/4
f 115/84/4 119/85/4 116/86/4
f 119/85/4 120/87/4 116/86/4
f 116/86/4 120/87/4 79/88/4
f 120/87/4 121/89/4 79/88/4
f 79/88/4 121/89/4 108/90/4
f 121/89/4 122/91/4 108/90/4
f 108/90/4 122/91/4 78/63/4
f 122/91/4 77/64/4 78/63/4
f 11/6/3 123/77/3 117/5/3
f 123/77/4 124/92/4 117/5/4
f 117/5/4 124/92/4 118/83/4
f 124/92/4 125/93/4 118/83/4
f 118/83/4 125/93/4 119/85/4
f 125/93/4 126/94/4 119/85/4
f 119/85/4 126/94/4 120/87/4
f 126/94/4 127/95/4 120/87/4
f 120/87/4 127/95/4 121/89/4
f 127/95/4 128/96/4 121/89/4
f 121/89/4 128/96/4 122/91/4
f 128/96/4 129/97/4 122/91/4
f 122/91/4 129/97/4 77/64/4
f 129/97/4 76/65/4 77/64/4
f 12/76/3 130/78/3 123/77/3
f 130/78/4 131/98/4 123/77/4
f 123/77/4 131/98/4 124/92/4
f 131/98/4 132/99/4 124/92/4
f 124/92/4 132/99/4 125/93/4
f 132/99/4 133/100/4 125/93/4
f 125/93/4 133/100/4 126/94/4
f 133/100/4 134/101/4 126/94/4
f 126/94/4 134/101/4 127/95/4
f 134/101/4 135/102/4 127/95/4
f 127/95/4 135/102/4 128/96/4
f 135/102/4 136/103/4 128/96/4
f 128/96/4 136/103/4 129/97/4
f 136/103/4 137/104/4 129/97/4
f 129/97/4 137/104/4 76/65/4
f 137/104/4 75/66/4 76/65/4
f 13/9/3 57/8/3 130/78/3
f 57/8/4 58/105/4 130/78/4
f 130/78/4 58/105/4 131/98/4
f 58/105/4 59/106/4 131/98/4
f 131/98/4 59/106/4 132/99/4
f 59/106/4 60/107/4 132/99/4
f 132/99/4 60/107/4 133/100/4
f 60/107/4 61/108/4 133/100/4
f 133/100/4 61/108/4 134/101/4
f 61/108/4 62/109/4 134/101/4
f 134/101/4 62/109/4 135/102/4
f 62/109/4 63/110/4 135/102/4
f 135/102/4 63/110/4 136/103/4
f 63/110/4 64/111/4 136/103/4
f 136/103/4 64/111/4 137/104/4
f 64/111/4 65/112/4 137/104/4
f 137/104/4 65/112/4 75/66/4
f 65/112/4 4/67/4 75/66/4
f 48/113/5 57/8/5 1/7/5
f 49/114/2 138/115/2 48/113/2
f 50/116/2 139/117/2 49/114/2
f 51/118/2 141/119/2 50/116/2
f 52/120/2 144/121/2 51/118/2
f 53/122/2 148/123/2 52/120/2
f 54/124/2 153/125/2 53/122/2
f 55/126/2 159/127/2 54/124/2
f 56/6/2 166/128/2 55/126/2
f 48/113/2 138/115/2 57/8/2
f 138/115/2 58/105/2 57/8/2
f 49/114/2 139/117/2 138/115/2
f 139/117/2 140/129/2 138/115/2
f 138/115/2 140/129/2 58/105/2
f 140/129/2 59/106/2 58/105/2
f 50/116/2 141/119/2 139/117/2
f 141/119/2 142/130/2 139/117/2
f 139/117/2 142/130/2 140/129/2
f 142/130/2 143/131/2 140/129/2
f 140/129/2 143/131/2 59/106/2
f 143/131/2 60/107/2 59/106/2
f 51/118/2 144/121/2 141/119/2
f 144/121/2 145/132/2 141/119/2
f 141/119/2 145/132/2 142/130/2
f 145/132/2 146/133/2 142/130/2
f 142/130/2 146/133/2 143/131/2
f 146/133/2 147/134/2 143/131/2
f 143/131/2 147/134/2 60/107/2
f 147/134/2 61/108/2 60/107/2
f 52/120/2 148/123/2 144/121/2
f 148/123/2 149/135/2 144/121/2
f 144/121/2 149/135/2 145/132/2
f 149/135/2 150/136/2 145/132/2
f 145/132/2 150/136/2 146/133/2
f 150/136/2 151/137/2 146/133/2
f 146/133/2 151/137/2 147/134/2
f 151/137/2 152/138/2 147/134/2
f 147/134/2 152/138/2 61/108/2
f 152/138/2 62/109/2 61/108/2
f 53/122/2 153/125/2 148/123/2
f 153/125/2 154/139/2 148/123/2
f 148/123/2 154/139/2 149/135/2
f 154/139/2 155/140/2 149/135/2
f 149/135/2 155/140/2 150/136/2
f 155/140/2 156/141/2 150/136/2
f 150/136/2 156/141/2 151/137/2
f 156/141/2 157/142/2 151/137/2
f 151/137/2 157/142/2 152/138/2
f 157/142/2 158/143/2 152/138/2
f 152/138/2 158/143/2 62/109/2
f 158/143/2 63/110/2 62/109/2
f 54/124/2 159/127/2 153/125/2
f 159/127/2 160/144/2 153/125/2
f 153/125/2 160/144/2 154/139/2
f 160/144/2 161/145/2 154/139/2
f 154/139/2 161/145/2 155/140/2
f 161/145/2 162/146/2 155/140/2
f 155/140/2 162/146/2 156/141/2
f 162/146/2 163/147/2 156/141/2
f 156/141/2 163/147/2 157/142/2
f 163/147/2 164/148/2 157/142/2
f 157/142/2 164/148/2 158/143/2
f 164/148/2 165/149/2 158/143/2
f 158/143/2 165/149/2 63/110/2
f 165/149/2 64/111/2 63/110/2
f 55/126/2 166/128/2 159/127/2
f 166/128/2 167/150/2 159/127/2
f 159/127/2 167/150/2 160/144/2
f 167/150/2 168/93/2 160/144/2
f 160/144/2 168/93/2 161/145/2
f 168/93/2 169/151/2 161/145/2
f 161/145/2 169/151/2 162/146/2
f 169/151/2 170/152/2 162/146/2
f 162/146/2 170/152/2 163/147/2
f 170/152/2 171/102/2 163/147/2
f 163/147/2 171/102/2 164/148/2
f 171/102/2 172/153/2 164/148/2
f 164/148/2 172/153/2 165/149/2
f 172/153/2 173/154/2 165/149/2
f 165/149/2 173/154/2 64/111/2
f 173/154/2 65/112/2 64/111/2
f 56/6/2 47/5/2 166/128/2
f 47/5/2 46/155/2 166/128/2
f 166/128/2 46/155/2 167/150/2
f 46/155/2 45/156/2 167/150/2
f 167/150/2 45/156/2 168/93/2
f 45/156/2 44/157/2 168/93/2
f 168/93/2 44/157/2 169/151/2
f 44/157/2 43/158/2 169/151/2
f 169/151/2 43/158/2 170/152/2
f 43/158/2 42/159/2 170/152/2
f 170/152/2 42/159/2 171/102/2
f 42/159/2 41/160/2 171/102/2
f 171/102/2 41/160/2 172/153/2
f 41/160/2 40/161/2 172/153/2
f 172/153/2 40/161/2 173/154/2
f 40/161/2 39/162/2 173/154/2
f 173/154/2 39/162/2 65/112/2
f 39/162/2 4/67/2 65/112/2
f 14/163/6 31/164/6 5/165/6
f 15/166/6 174/167/6 14/163/6
f 16/168/6 175/169/6 15/166/6
f 17/170/6 177/171/6 16/168/6
f 18/172/6 180/173/6 17/170/6
f 19/174/6 184/175/6 18/172/6
f 20/176/6 189/177/6 19/174/6
f 21/178/6 195/179/6 20/176/6
f 22/3/6 202/180/6 21/178/6
f 14/163/6 174/167/6 31/164/6
f 174/167/6 30/181/6 31/164/6
f 15/166/6 175/169/6 174/167/6
f 175/169/6 176/182/6 174/167/6
f 174/167/6 176/182/6 30/181/6
f 176/182/6 29/183/6 30/181/6
f 16/168/6 177/171/6 175/169/6
f 177/171/6 178/184/6 175/169/6
f 175/169/6 178/184/6 176/182/6
f 178/184/6 179/185/6 176/182/6
f 176/182/6 179/185/6 29/183/6
f 179/185/6 28/186/6 29/183/6
f 17/170/6 180/173/6 177/171/6
f 180/173/6 181/187/6 177/171/6
f 177/171/6 181/187/6 178/184/6
f 181/187/6 182/188/6 178/184/6
f 178/184/6 182/188/6 179/185/6
f 182/188/6 183/189/6 179/185/6
f 179/185/6 183/189/6 28/186/6
f 183/189/6 27/190/6 28/186/6
f 18/172/6 184/175/6 180/173/6
f 184/175/6 185/191/6 180/173/6
f 180/173/6 185/191/6 181/187/6
f 185/191/6 186/192/6 181/187/6
f 181/187/6 186/192/6 182/188/6
f 186/192/6 187/193/6 182/188/6
f 182/188/6 187/193/6 183/189/6
f 187/193/6 188/194/6 183/189/6
f 183/189/6 188/194/6 27/190/6
f 188/194/6 26/195/6 27/190/6
f 19/174/6 189/177/6 184/175/6
f 189/177/6 190/196/6 184/175/6
f 184/175/6 190/196/6 185/191/6
f 190/196/6 191/197/6 185/191/6
f 185/191/6 191/197/6 186/192/6
f 191/197/6 192/198/6 186/192/6
f 186/192/6 192/198/6 187/193/6
f 192/198/6 193/48/6 187/193/6
f 187/193/6 193/48/6 188/194/6
f 193/48/6 194/199/6 188/194/6
f 188/194/6 194/199/6 26/195/6
f 194/199/6 25/200/6 26/195/6
f 20/176/6 195/179/6 189/177/6
f 195/179/6 196/201/6 189/177/6
f 189/177/6 196/201/6 190/196/6
f 196/201/6 197/202/6 190/196/6
f 190/196/6 197/202/6 191/197/6
f 197/202/6 198/203/6 191/197/6
f 191/197/6 198/203/6 192/198/6
f 198/203/6 199/41/6 192/198/6
f 192/198/6 199/41/6 193/48/6
f 199/41/6 200/204/6 193/48/6
f 193/48/6 200/204/6 194/199/6
f 200/204/6 201/205/6 194/199/6
f 194/199/6 201/205/6 25/200/6
f 201/205/6 24/206/6 25/200/6
f 21/178/6 202/180/6 195/179/6
f 202/180/6 203/207/6 195/179/6
f 195/179/6 203/207/6 196/201/6
f 203/207/6 204/208/6 196/201/6
f 196/201/6 204/208/6 197/202/6
f 204/208/6 205/25/6 197/202/6
f 197/202/6 205/25/6 198/203/6
f 205/25/6 206/23/6 198/203/6
f 198/203/6 206/23/6 199/41/6
f 206/23/6 207/209/6 199/41/6
f 199/41/6 207/209/6 200/204/6
f 207/209/6 208/19/6 200/204/6
f 200/204/6 208/19/6 201/205/6
f 208/19/6 209/210/6 201/205/6
f 201/205/6 209/210/6 24/206/6
f 209/210/6 23/211/6 24/206/6
f 22/3/6 66/2/6 202/180/6
f 66/2/6 67/26/6 202/180/6
f 202/180/6 67/26/6 203/207/6
f 67/26/6 68/24/6 203/207/6
f 203/207/6 68/24/6 204/208/6
f 68/24/6 69/22/6 204/208/6
f 204/208/6 69/22/6 205/25/6
f 69/22/6 70/20/6 205/25/6
f 205/25/6 70/20/6 206/23/6
f 70/20/6 71/18/6 206/23/6
f 206/23/6 71/18/6 207/209/6
f 71/18/6 72/16/6 207/209/6
f 207/209/6 72/16/6 208/19/6
f 72/16/6 73/14/6 208/19/6
f 208/19/6 73/14/6 209/210/6
f 73/14/6 74/11/6 209/210/6
f 209/210/6 74/11/6 23/211/6
f 74/11/6 6/13/6 23/211/6
